<svg width="1663" height="679" viewBox="0 0 1663 679" fill="none" xmlns="http://www.w3.org/2000/svg">
<path d="M953 28L1154.78 94.25V226.75L953 293L751.216 226.75V94.25L953 28Z" fill="#4752A1"/>
<path d="M710 28L911.784 94.25V226.75L710 293L508.216 226.75V94.25L710 28Z" fill="#4752A1"/>
<path d="M831 179L1032.78 244V374L831 439L629.216 374V244L831 179Z" fill="#4752A1"/>
<path d="M831 69L1032.78 134V264L831 329L629.216 264V134L831 69Z" fill="white"/>
<path d="M139.524 608L94.644 495.46L116.404 492.4L149.214 577.91L181.004 492.4H203.274L158.224 608H139.524ZM225.946 489C229.46 489 232.406 490.19 234.786 492.57C237.28 494.95 238.526 497.897 238.526 501.41C238.526 504.923 237.28 507.87 234.786 510.25C232.406 512.63 229.46 513.82 225.946 513.82C222.546 513.82 219.656 512.63 217.276 510.25C214.896 507.87 213.706 504.923 213.706 501.41C213.706 497.897 214.896 494.95 217.276 492.57C219.656 490.19 222.546 489 225.946 489ZM236.996 525.55V608H214.896V525.55H236.996ZM319.763 538.13L279.983 590.15H319.763L321.463 608H253.463L250.573 596.27L289.843 543.74H256.863L252.613 525.55H318.573L319.763 538.13ZM385.76 606.3C383.946 607.773 381.34 608.963 377.94 609.87C374.653 610.89 371.706 611.4 369.1 611.4C358.9 611.4 350.853 608.85 344.96 603.75C339.18 598.537 336.29 591.17 336.29 581.65V542.72H325.24V525.72H336.29V506.17L358.22 502.26V525.72H373.18L379.98 542.72H358.22V577.74C358.22 582.047 359.24 585.617 361.28 588.45C363.32 591.17 366.323 592.53 370.29 592.53C371.763 592.53 373.236 592.36 374.71 592.02C376.183 591.68 377.713 591.113 379.3 590.32L385.76 606.3ZM440.682 610.04C426.402 610.04 415.125 606.13 406.852 598.31C398.692 590.49 394.612 580.007 394.612 566.86C394.612 553.713 398.295 543.173 405.662 535.24C413.142 527.307 423.285 523.34 436.092 523.34C449.012 523.34 458.475 527.647 464.482 536.26C470.602 544.76 473.662 554.847 473.662 566.52V573.32H418.072C419.092 578.76 421.585 583.123 425.552 586.41C429.518 589.583 434.732 591.17 441.192 591.17C444.932 591.17 448.275 590.717 451.222 589.81C454.282 588.79 457.795 587.373 461.762 585.56L468.222 601.54C464.368 604.487 459.665 606.64 454.112 608C448.672 609.36 444.195 610.04 440.682 610.04ZM452.752 558.53C451.618 552.977 449.578 548.897 446.632 546.29C443.685 543.57 440.002 542.21 435.582 542.21C431.048 542.21 427.252 543.627 424.192 546.46C421.132 549.18 419.148 553.203 418.242 558.53H452.752ZM529.918 542.21C523.685 542.21 518.812 544.59 515.298 549.35C511.785 553.997 510.028 559.833 510.028 566.86C510.028 574 511.785 579.837 515.298 584.37C518.812 588.903 523.685 591.17 529.918 591.17C533.772 591.17 537.228 590.717 540.288 589.81C543.462 588.79 547.032 587.373 550.998 585.56L557.288 601.54C553.435 604.487 548.732 606.64 543.178 608C537.738 609.36 533.262 610.04 529.748 610.04C516.375 610.04 505.948 606.13 498.468 598.31C490.988 590.49 487.248 580.007 487.248 566.86C487.248 553.713 490.988 543.173 498.468 535.24C505.948 527.307 516.375 523.34 529.748 523.34C533.262 523.34 537.682 524.077 543.008 525.55C548.448 527.023 553.208 529.177 557.288 532.01L550.998 547.82C547.032 546.007 543.462 544.647 540.288 543.74C537.228 542.72 533.772 542.21 529.918 542.21ZM596.444 530.99C600.071 528.157 604.208 526.003 608.854 524.53C613.614 523.057 617.864 522.32 621.604 522.32C632.824 522.32 640.758 525.607 645.404 532.18C650.164 538.753 652.544 546.8 652.544 556.32V608H630.444V557.34C630.444 552.127 629.198 548.16 626.704 545.44C624.211 542.607 620.528 541.19 615.654 541.19C612.481 541.19 609.194 542.04 605.794 543.74C602.394 545.327 599.278 547.197 596.444 549.35V608H574.514V489.85L596.444 487.98V530.99ZM752.213 510.76H738.613V546.12H752.553C759.127 546.12 764.567 544.817 768.873 542.21C773.18 539.49 775.333 535.07 775.333 528.95C775.333 522.49 773.293 517.843 769.213 515.01C765.133 512.177 759.467 510.76 752.213 510.76ZM783.833 608L759.353 563.8C758.107 563.913 756.803 564.027 755.443 564.14C754.083 564.14 752.723 564.14 751.363 564.14H738.613V608H716.683V492.4H752.893C765.473 492.4 776.24 495.29 785.193 501.07C794.147 506.85 798.623 515.803 798.623 527.93C798.623 535.07 796.753 541.247 793.013 546.46C789.387 551.56 784.683 555.527 778.903 558.36L807.293 608H783.833ZM862.195 610.04C847.915 610.04 836.639 606.13 828.365 598.31C820.205 590.49 816.125 580.007 816.125 566.86C816.125 553.713 819.809 543.173 827.175 535.24C834.655 527.307 844.799 523.34 857.605 523.34C870.525 523.34 879.989 527.647 885.995 536.26C892.115 544.76 895.175 554.847 895.175 566.52V573.32H839.585C840.605 578.76 843.099 583.123 847.065 586.41C851.032 589.583 856.245 591.17 862.705 591.17C866.445 591.17 869.789 590.717 872.735 589.81C875.795 588.79 879.309 587.373 883.275 585.56L889.735 601.54C885.882 604.487 881.179 606.64 875.625 608C870.185 609.36 865.709 610.04 862.195 610.04ZM874.265 558.53C873.132 552.977 871.092 548.897 868.145 546.29C865.199 543.57 861.515 542.21 857.095 542.21C852.562 542.21 848.765 543.627 845.705 546.46C842.645 549.18 840.662 553.203 839.755 558.53H874.265ZM960.612 547.82C956.645 546.007 952.962 544.647 949.562 543.74C946.162 542.72 942.535 542.21 938.682 542.21C935.849 542.21 933.639 542.777 932.052 543.91C930.579 544.93 929.842 546.403 929.842 548.33C929.842 549.69 930.749 550.993 932.562 552.24C934.489 553.487 937.549 554.847 941.742 556.32C948.655 558.813 955.059 562.327 960.952 566.86C966.845 571.28 969.792 577.06 969.792 584.2C969.792 592.36 966.845 598.707 960.952 603.24C955.172 607.773 946.672 610.04 935.452 610.04C931.939 610.04 927.235 609.36 921.342 608C915.562 606.64 910.745 604.487 906.892 601.54L913.522 585.56C917.489 587.373 921.285 588.79 924.912 589.81C928.652 590.717 932.052 591.17 935.112 591.17C939.192 591.17 942.309 590.603 944.462 589.47C946.615 588.337 947.692 586.863 947.692 585.05C947.692 582.783 946.615 580.743 944.462 578.93C942.309 577.117 938.909 575.473 934.262 574C927.689 571.847 921.455 568.787 915.562 564.82C909.782 560.74 906.892 555.3 906.892 548.5C906.892 540.68 909.782 534.56 915.562 530.14C921.342 525.607 929.162 523.34 939.022 523.34C942.535 523.34 947.069 524.077 952.622 525.55C958.175 527.023 963.049 529.177 967.242 532.01L960.612 547.82ZM1023.62 610.04C1010.59 610.04 1000.39 606.13 993.021 598.31C985.768 590.377 982.141 579.78 982.141 566.52C982.141 553.373 985.938 542.89 993.531 535.07C1001.24 527.25 1011.72 523.34 1024.98 523.34C1038.69 523.34 1049.29 527.42 1056.77 535.58C1064.36 543.627 1068.16 554.223 1068.16 567.37C1068.16 580.517 1064.08 590.943 1055.92 598.65C1047.76 606.243 1036.99 610.04 1023.62 610.04ZM1045.38 567.37C1045.38 559.55 1043.62 553.43 1040.11 549.01C1036.71 544.477 1031.84 542.21 1025.49 542.21C1019.03 542.21 1013.99 544.193 1010.36 548.16C1006.73 552.127 1004.92 558.19 1004.92 566.35C1004.92 574.51 1006.45 580.687 1009.51 584.88C1012.68 589.073 1017.5 591.17 1023.96 591.17C1030.31 591.17 1035.46 589.3 1039.43 585.56C1043.4 581.707 1045.38 575.643 1045.38 567.37ZM1144.46 599.84C1140.72 603.353 1136.13 606.13 1130.69 608.17C1125.25 610.323 1120.32 611.4 1115.9 611.4C1104.68 611.4 1096.69 608.113 1091.93 601.54C1087.29 594.853 1084.96 586.807 1084.96 577.4V525.55H1107.23V576.38C1107.23 581.593 1108.48 585.617 1110.97 588.45C1113.47 591.17 1117.09 592.53 1121.85 592.53C1124.8 592.53 1127.92 591.793 1131.2 590.32C1134.49 588.847 1137.49 587.147 1140.21 585.22V525.55H1162.31V608H1150.75L1144.46 599.84ZM1228.82 525.55L1233.24 543.23C1229.5 543.23 1225.13 544.307 1220.15 546.46C1215.27 548.613 1210.46 551.787 1205.7 555.98V608H1183.6V525.55H1195.16L1202.47 537.62C1205.87 534.673 1210 531.953 1214.88 529.46C1219.75 526.853 1224.4 525.55 1228.82 525.55ZM1283.8 542.21C1277.56 542.21 1272.69 544.59 1269.18 549.35C1265.66 553.997 1263.91 559.833 1263.91 566.86C1263.91 574 1265.66 579.837 1269.18 584.37C1272.69 588.903 1277.56 591.17 1283.8 591.17C1287.65 591.17 1291.11 590.717 1294.17 589.81C1297.34 588.79 1300.91 587.373 1304.88 585.56L1311.17 601.54C1307.31 604.487 1302.61 606.64 1297.06 608C1291.62 609.36 1287.14 610.04 1283.63 610.04C1270.25 610.04 1259.83 606.13 1252.35 598.31C1244.87 590.49 1241.13 580.007 1241.13 566.86C1241.13 553.713 1244.87 543.173 1252.35 535.24C1259.83 527.307 1270.25 523.34 1283.63 523.34C1287.14 523.34 1291.56 524.077 1296.89 525.55C1302.33 527.023 1307.09 529.177 1311.17 532.01L1304.88 547.82C1300.91 546.007 1297.34 544.647 1294.17 543.74C1291.11 542.72 1287.65 542.21 1283.8 542.21ZM1338.25 489C1341.76 489 1344.71 490.19 1347.09 492.57C1349.58 494.95 1350.83 497.897 1350.83 501.41C1350.83 504.923 1349.58 507.87 1347.09 510.25C1344.71 512.63 1341.76 513.82 1338.25 513.82C1334.85 513.82 1331.96 512.63 1329.58 510.25C1327.2 507.87 1326.01 504.923 1326.01 501.41C1326.01 497.897 1327.2 494.95 1329.58 492.57C1331.96 490.19 1334.85 489 1338.25 489ZM1349.3 525.55V608H1327.2V525.55H1349.3ZM1388.89 534.39C1392.63 530.65 1397.27 527.703 1402.83 525.55C1408.49 523.397 1413.54 522.32 1417.96 522.32C1429.18 522.32 1437.11 525.607 1441.76 532.18C1446.52 538.753 1448.9 546.8 1448.9 556.32V608H1426.8V557.34C1426.8 552.127 1425.55 548.16 1423.06 545.44C1420.56 542.607 1416.94 541.19 1412.18 541.19C1409 541.19 1405.66 542.04 1402.15 543.74C1398.75 545.327 1395.63 547.197 1392.8 549.35V608H1370.7V525.55H1382.26L1388.89 534.39ZM1509.26 541.19C1501.55 541.19 1496.17 543.91 1493.11 549.35C1490.16 554.79 1488.69 560.4 1488.69 566.18C1488.69 572.64 1490.05 578.42 1492.77 583.52C1495.49 588.62 1500.99 591.17 1509.26 591.17C1511.87 591.17 1514.59 590.603 1517.42 589.47C1520.37 588.223 1523.09 586.807 1525.58 585.22V547.14C1523.09 545.44 1520.37 544.023 1517.42 542.89C1514.59 541.757 1511.87 541.19 1509.26 541.19ZM1547.85 525.55V607.83C1547.85 617.803 1544.45 626.133 1537.65 632.82C1530.96 639.62 1520.31 643.02 1505.69 643.02C1502.18 643.02 1497.08 642.17 1490.39 640.47C1483.7 638.883 1478.15 636.617 1473.73 633.67L1480.36 618.03C1485.46 620.523 1489.82 622.337 1493.45 623.47C1497.08 624.603 1500.99 625.17 1505.18 625.17C1511.75 625.17 1516.8 623.583 1520.31 620.41C1523.82 617.35 1525.58 613.1 1525.58 607.66V603.41C1522.07 605.45 1518.33 607.037 1514.36 608.17C1510.39 609.417 1506.71 610.04 1503.31 610.04C1491.3 610.04 1482.06 605.847 1475.6 597.46C1469.14 589.073 1465.91 578.647 1465.91 566.18C1465.91 553.713 1469.31 543.287 1476.11 534.9C1483.02 526.513 1492.43 522.32 1504.33 522.32C1508.41 522.32 1513 523.227 1518.1 525.04C1523.2 526.74 1527.56 529.177 1531.19 532.35L1536.29 525.55H1547.85Z" fill="#4752A1"/>
</svg>
